<svg xmlns="http://www.w3.org/2000/svg" width="33" height="33" viewBox="0 0 33 33"><g fill="none" transform="translate(.104 .04)"><polygon fill="#42B983" points="14.954 16 14.954 32 16.878 32 16.878 0 14.954 0"/><path fill="#35495E" d="M2.80168776,13.2897959 L-1.77635684e-15,16 L2.70042194,18.6122449 L5.43459916,21.2571429 L6.10970464,20.6040816 L6.78481013,19.9510204 L5.23206751,18.4489796 L3.67932489,16.9469388 L11.07173,16.9469388 L11.07173,15.0530612 L3.67932489,15.0530612 L5.29957806,13.5183673 L6.9535865,11.9183673 C6.9535865,11.8530612 6.64978903,11.5591837 6.27848101,11.2 L5.60337553,10.5469388 L2.80168776,13.2897959 Z"/><polygon fill="#35495E" points="25.755 11.233 25.046 11.886 25.418 12.245 26.97 13.812 28.152 15.02 24.473 15.053 20.759 15.053 20.759 16.947 28.152 16.947 26.599 18.449 25.046 19.951 25.755 20.604 26.43 21.257 29.198 18.547 32 15.837 31.561 15.478 28.793 12.833 26.43 10.547"/></g></svg>